# File exported by Houdini 19.5.303 (www.sidefx.com)
# 50 points
# 240 vertices
# 72 primitives
# Bounds: [-0.5, 0.0400000215, -0.5] to [0.5, 1.0400002, 0.5]
g 
v 0.5 1.04000008 0
v 0.482962906 1.04000008 -0.129409522
v 0.433012694 1.04000008 -0.25
v 0.353553385 1.04000008 -0.353553385
v 0.249999985 1.04000008 -0.433012724
v 0.129409537 1.04000008 -0.482962906
v -2.18556941e-08 1.04000008 -0.5
v -0.129409581 1.04000008 -0.482962906
v -0.25000003 1.04000008 -0.433012694
v -0.353553385 1.04000008 -0.353553385
v -0.433012694 1.04000008 -0.25000003
v -0.482962936 1.04000008 -0.129409462
v -0.5 1.04000008 4.37113883e-08
v -0.482962906 1.04000008 0.129409537
v -0.433012635 1.04000008 0.250000089
v -0.353553325 1.04000008 0.353553444
v -0.249999955 1.04000008 0.433012724
v -0.129409492 1.04000008 0.482962936
v 5.96244032e-09 1.04000008 0.5
v 0.129409507 1.04000008 0.482962906
v 0.249999955 1.04000008 0.433012724
v 0.353553504 1.04000008 0.353553265
v 0.433012784 1.04000008 0.249999881
v 0.482962936 1.04000008 0.129409418
v 0.5 0.0400000811 0
v 0.482962906 0.0400000811 -0.129409522
v 0.433012694 0.0400000811 -0.25
v 0.353553385 0.0400000811 -0.353553385
v 0.249999985 0.0400000811 -0.433012724
v 0.129409537 0.0400000811 -0.482962906
v -2.18556941e-08 0.0400000811 -0.5
v -0.129409581 0.0400000811 -0.482962906
v -0.25000003 0.0400000811 -0.433012694
v -0.353553385 0.0400000811 -0.353553385
v -0.433012694 0.0400000811 -0.25000003
v -0.482962936 0.0400000811 -0.129409462
v -0.5 0.0400000811 4.37113883e-08
v -0.482962906 0.0400000811 0.129409537
v -0.433012635 0.0400000811 0.250000089
v -0.353553325 0.0400000811 0.353553444
v -0.249999955 0.0400000811 0.433012724
v -0.129409492 0.0400000811 0.482962936
v 5.96244032e-09 0.0400000811 0.5
v 0.129409507 0.0400000811 0.482962906
v 0.249999955 0.0400000811 0.433012724
v 0.353553504 0.0400000811 0.353553265
v 0.433012784 0.0400000811 0.249999881
v 0.482962936 0.0400000811 0.129409418
v 3.7252903e-09 1.0400002 7.4505806e-09
v 0 0.0400000215 -3.25962901e-09
vn 1 0 -6.21935072e-08
vn 1 0 -6.21935072e-08
vn 0.965925753 -0 -0.258819044
vn 0.965925753 -0 -0.258819044
vn 0.965925753 -0 -0.258819044
vn 0.965925753 -0 -0.258819044
vn 0.866025388 -0 -0.49999997
vn 0.866025388 -0 -0.49999997
vn 0.866025388 -0 -0.49999997
vn 0.866025388 -0 -0.49999997
vn 0.707106769 -0 -0.707106709
vn 0.707106769 -0 -0.707106709
vn 0.707106769 -0 -0.707106709
vn 0.707106769 -0 -0.707106709
vn 0.49999997 -0 -0.866025388
vn 0.49999997 -0 -0.866025388
vn 0.49999997 -0 -0.866025388
vn 0.49999997 -0 -0.866025388
vn 0.258818984 -0 -0.965925813
vn 0.258818984 -0 -0.965925813
vn 0.258818984 -0 -0.965925813
vn 0.258818984 -0 -0.965925813
vn 4.78411621e-09 0 -1
vn 4.78411621e-09 0 -1
vn 4.78411621e-09 0 -1
vn 4.78411621e-09 0 -1
vn -0.258819103 0 -0.965925872
vn -0.258819103 0 -0.965925872
vn -0.258819103 0 -0.965925872
vn -0.258819103 0 -0.965925872
vn -0.500000179 0 -0.866025329
vn -0.500000179 0 -0.866025329
vn -0.500000179 0 -0.866025329
vn -0.500000179 0 -0.866025329
vn -0.707106769 0 -0.707106769
vn -0.707106769 0 -0.707106769
vn -0.707106769 0 -0.707106769
vn -0.707106769 0 -0.707106769
vn -0.866025388 0 -0.50000006
vn -0.866025388 0 -0.50000006
vn -0.866025388 0 -0.50000006
vn -0.866025388 0 -0.50000006
vn -0.965925813 0 -0.258818954
vn -0.965925813 0 -0.258818954
vn -0.965925813 0 -0.258818954
vn -0.965925813 0 -0.258818954
vn -1 -0 1.14818789e-07
vn -1 -0 1.14818789e-07
vn -1 -0 1.14818789e-07
vn -1 -0 1.14818789e-07
vn -0.965925872 -0 0.258819222
vn -0.965925872 -0 0.258819222
vn -0.965925872 -0 0.258819222
vn -0.965925872 -0 0.258819222
vn -0.866025209 -0 0.500000179
vn -0.866025209 -0 0.500000179
vn -0.866025209 -0 0.500000179
vn -0.866025209 -0 0.500000179
vn -0.707106709 -0 0.707106829
vn -0.707106709 -0 0.707106829
vn -0.707106709 -0 0.707106829
vn -0.707106709 -0 0.707106829
vn -0.49999997 -0 0.866025388
vn -0.49999997 -0 0.866025388
vn -0.49999997 -0 0.866025388
vn -0.49999997 -0 0.866025388
vn -0.258819014 -0 0.965925872
vn -0.258819014 -0 0.965925872
vn -0.258819014 -0 0.965925872
vn -0.258819014 -0 0.965925872
vn 9.56823243e-08 -0 1
vn 9.56823243e-08 -0 1
vn 9.56823243e-08 -0 1
vn 9.56823243e-08 -0 1
vn 0.258818984 0 0.965925813
vn 0.258818984 0 0.965925813
vn 0.258818984 0 0.965925813
vn 0.258818984 0 0.965925813
vn 0.49999997 0 0.866025388
vn 0.49999997 0 0.866025388
vn 0.49999997 0 0.866025388
vn 0.49999997 0 0.866025388
vn 0.707106829 0 0.70710665
vn 0.707106829 0 0.70710665
vn 0.707106829 0 0.70710665
vn 0.707106829 0 0.70710665
vn 0.866025507 0 0.499999762
vn 0.866025507 0 0.499999762
vn 0.866025507 0 0.499999762
vn 0.866025507 0 0.499999762
vn 0.965925813 0 0.258818835
vn 0.965925813 0 0.258818835
vn 0.965925813 0 0.258818835
vn 0.965925813 0 0.258818835
vn 1 0 -6.21935072e-08
vn 1 0 -6.21935072e-08
vn 7.35061629e-15 1 -8.05740599e-15
vn 1.1920929e-07 1 -6.16834846e-15
vn 1.15147337e-07 1 -3.08536379e-08
vn 7.35061629e-15 1 -8.05740599e-15
vn 1.15147337e-07 1 3.08536094e-08
vn 1.1920929e-07 1 -6.16834846e-15
vn 7.35061629e-15 1 -8.05740599e-15
vn 1.03238285e-07 1 5.96046092e-08
vn 1.15147337e-07 1 3.08536094e-08
vn 7.35061629e-15 1 -8.05740599e-15
vn 8.42937098e-08 1 8.42936885e-08
vn 1.03238285e-07 1 5.96046092e-08
vn 7.35061629e-15 1 -8.05740599e-15
vn 5.96046519e-08 1 1.03238278e-07
vn 8.42937098e-08 1 8.42936885e-08
vn 7.35061629e-15 1 -8.05740599e-15
vn 3.08536308e-08 1 1.15147337e-07
vn 5.96046519e-08 1 1.03238278e-07
vn 7.35061629e-15 1 -8.05740599e-15
vn 1.17198621e-14 1 1.1920929e-07
vn 3.08536308e-08 1 1.15147337e-07
vn 7.35061629e-15 1 -8.05740599e-15
vn -3.08536308e-08 1 1.15147323e-07
vn 1.17198621e-14 1 1.1920929e-07
vn 7.35061629e-15 1 -8.05740599e-15
vn -5.96046519e-08 1 1.03238278e-07
vn -3.08536308e-08 1 1.15147323e-07
vn 7.35061629e-15 1 -8.05740599e-15
vn -8.42936885e-08 1 8.42937098e-08
vn -5.96046519e-08 1 1.03238278e-07
vn 7.35061629e-15 1 -8.05740599e-15
vn -1.03238257e-07 1 5.96046661e-08
vn -8.42936885e-08 1 8.42937098e-08
vn 7.35061629e-15 1 -8.05740599e-15
vn -1.15147316e-07 1 3.08536485e-08
vn -1.03238257e-07 1 5.96046661e-08
vn 7.35061629e-15 1 -8.05740599e-15
vn -1.1920929e-07 1 1.29535317e-14
vn -1.15147316e-07 1 3.08536485e-08
vn 7.35061629e-15 1 -8.05740599e-15
vn -1.15147337e-07 1 -3.08536201e-08
vn -1.1920929e-07 1 1.29535317e-14
vn 7.35061629e-15 1 -8.05740599e-15
vn -1.03238278e-07 1 -5.96046519e-08
vn -1.15147337e-07 1 -3.08536201e-08
vn 7.35061629e-15 1 -8.05740599e-15
vn -8.42937027e-08 1 -8.42937027e-08
vn -1.03238278e-07 1 -5.96046519e-08
vn 7.35061629e-15 1 -8.05740599e-15
vn -5.9604659e-08 1 -1.03238271e-07
vn -8.42937027e-08 1 -8.42937027e-08
vn 7.35061629e-15 1 -8.05740599e-15
vn -3.08536414e-08 1 -1.15147316e-07
vn -5.9604659e-08 1 -1.03238271e-07
vn 7.35061629e-15 1 -8.05740599e-15
vn 0 1 -1.1920929e-07
vn -3.08536414e-08 1 -1.15147316e-07
vn 7.35061629e-15 1 -8.05740599e-15
vn 3.08536308e-08 1 -1.15147337e-07
vn 0 1 -1.1920929e-07
vn 7.35061629e-15 1 -8.05740599e-15
vn 5.96046448e-08 1 -1.03238278e-07
vn 3.08536308e-08 1 -1.15147337e-07
vn 7.35061629e-15 1 -8.05740599e-15
vn 8.42937098e-08 1 -8.42937027e-08
vn 5.96046448e-08 1 -1.03238278e-07
vn 7.35061629e-15 1 -8.05740599e-15
vn 1.03238271e-07 1 -5.96046448e-08
vn 8.42937098e-08 1 -8.42937027e-08
vn 7.35061629e-15 1 -8.05740599e-15
vn 1.15147337e-07 1 -3.08536379e-08
vn 1.03238271e-07 1 -5.96046448e-08
vn 1.13086386e-14 -1 -6.99722017e-15
vn 1.15147337e-07 -1 -3.08536379e-08
vn 1.1920929e-07 -1 -6.16834846e-15
vn 1.13086386e-14 -1 -6.99722017e-15
vn 1.03238271e-07 -1 -5.96046448e-08
vn 1.15147337e-07 -1 -3.08536379e-08
vn 1.13086386e-14 -1 -6.99722017e-15
vn 8.42937098e-08 -1 -8.42937027e-08
vn 1.03238271e-07 -1 -5.96046448e-08
vn 1.13086386e-14 -1 -6.99722017e-15
vn 5.96046448e-08 -1 -1.03238278e-07
vn 8.42937098e-08 -1 -8.42937027e-08
vn 1.13086386e-14 -1 -6.99722017e-15
vn 3.08536308e-08 -1 -1.15147337e-07
vn 5.96046448e-08 -1 -1.03238278e-07
vn 1.13086386e-14 -1 -6.99722017e-15
vn 1.23366971e-15 -1 -1.1920929e-07
vn 3.08536308e-08 -1 -1.15147337e-07
vn 1.13086386e-14 -1 -6.99722017e-15
vn -3.08536414e-08 -1 -1.15147316e-07
vn 1.23366971e-15 -1 -1.1920929e-07
vn 1.13086386e-14 -1 -6.99722017e-15
vn -5.9604659e-08 -1 -1.03238271e-07
vn -3.08536414e-08 -1 -1.15147316e-07
vn 1.13086386e-14 -1 -6.99722017e-15
vn -8.42937027e-08 -1 -8.42937027e-08
vn -5.9604659e-08 -1 -1.03238271e-07
vn 1.13086386e-14 -1 -6.99722017e-15
vn -1.03238278e-07 -1 -5.96046519e-08
vn -8.42937027e-08 -1 -8.42937027e-08
vn 1.13086386e-14 -1 -6.99722017e-15
vn -1.15147337e-07 -1 -3.08536166e-08
vn -1.03238278e-07 -1 -5.96046519e-08
vn 1.13086386e-14 -1 -6.99722017e-15
vn -1.1920929e-07 -1 1.35703665e-14
vn -1.15147337e-07 -1 -3.08536166e-08
vn 1.13086386e-14 -1 -6.99722017e-15
vn -1.15147323e-07 -1 3.08536485e-08
vn -1.1920929e-07 -1 1.35703665e-14
vn 1.13086386e-14 -1 -6.99722017e-15
vn -1.03238257e-07 -1 5.96046661e-08
vn -1.15147323e-07 -1 3.08536485e-08
vn 1.13086386e-14 -1 -6.99722017e-15
vn -8.42936885e-08 -1 8.42937098e-08
vn -1.03238257e-07 -1 5.96046661e-08
vn 1.13086386e-14 -1 -6.99722017e-15
vn -5.96046519e-08 -1 1.03238278e-07
vn -8.42936885e-08 -1 8.42937098e-08
vn 1.13086386e-14 -1 -6.99722017e-15
vn -3.08536308e-08 -1 1.15147323e-07
vn -5.96046519e-08 -1 1.03238278e-07
vn 1.13086386e-14 -1 -6.99722017e-15
vn 1.17198621e-14 -1 1.1920929e-07
vn -3.08536308e-08 -1 1.15147323e-07
vn 1.13086386e-14 -1 -6.99722017e-15
vn 3.08536308e-08 -1 1.15147337e-07
vn 1.17198621e-14 -1 1.1920929e-07
vn 1.13086386e-14 -1 -6.99722017e-15
vn 5.96046519e-08 -1 1.03238278e-07
vn 3.08536308e-08 -1 1.15147337e-07
vn 1.13086386e-14 -1 -6.99722017e-15
vn 8.42937098e-08 -1 8.42936885e-08
vn 5.96046519e-08 -1 1.03238278e-07
vn 1.13086386e-14 -1 -6.99722017e-15
vn 1.03238285e-07 -1 5.96046092e-08
vn 8.42937098e-08 -1 8.42936885e-08
vn 1.13086386e-14 -1 -6.99722017e-15
vn 1.15147337e-07 -1 3.08536094e-08
vn 1.03238285e-07 -1 5.96046092e-08
vn 1.13086386e-14 -1 -6.99722017e-15
vn 1.1920929e-07 -1 -6.16834846e-15
vn 1.15147337e-07 -1 3.08536094e-08
g 
f 1//1 25//2 26//3 2//4
f 2//5 26//6 27//7 3//8
f 3//9 27//10 28//11 4//12
f 4//13 28//14 29//15 5//16
f 5//17 29//18 30//19 6//20
f 6//21 30//22 31//23 7//24
f 7//25 31//26 32//27 8//28
f 8//29 32//30 33//31 9//32
f 9//33 33//34 34//35 10//36
f 10//37 34//38 35//39 11//40
f 11//41 35//42 36//43 12//44
f 12//45 36//46 37//47 13//48
f 13//49 37//50 38//51 14//52
f 14//53 38//54 39//55 15//56
f 15//57 39//58 40//59 16//60
f 16//61 40//62 41//63 17//64
f 17//65 41//66 42//67 18//68
f 18//69 42//70 43//71 19//72
f 19//73 43//74 44//75 20//76
f 20//77 44//78 45//79 21//80
f 21//81 45//82 46//83 22//84
f 22//85 46//86 47//87 23//88
f 23//89 47//90 48//91 24//92
f 24//93 48//94 25//95 1//96
f 49//97 1//98 2//99
f 49//100 24//101 1//102
f 49//103 23//104 24//105
f 49//106 22//107 23//108
f 49//109 21//110 22//111
f 49//112 20//113 21//114
f 49//115 19//116 20//117
f 49//118 18//119 19//120
f 49//121 17//122 18//123
f 49//124 16//125 17//126
f 49//127 15//128 16//129
f 49//130 14//131 15//132
f 49//133 13//134 14//135
f 49//136 12//137 13//138
f 49//139 11//140 12//141
f 49//142 10//143 11//144
f 49//145 9//146 10//147
f 49//148 8//149 9//150
f 49//151 7//152 8//153
f 49//154 6//155 7//156
f 49//157 5//158 6//159
f 49//160 4//161 5//162
f 49//163 3//164 4//165
f 49//166 2//167 3//168
f 50//169 26//170 25//171
f 50//172 27//173 26//174
f 50//175 28//176 27//177
f 50//178 29//179 28//180
f 50//181 30//182 29//183
f 50//184 31//185 30//186
f 50//187 32//188 31//189
f 50//190 33//191 32//192
f 50//193 34//194 33//195
f 50//196 35//197 34//198
f 50//199 36//200 35//201
f 50//202 37//203 36//204
f 50//205 38//206 37//207
f 50//208 39//209 38//210
f 50//211 40//212 39//213
f 50//214 41//215 40//216
f 50//217 42//218 41//219
f 50//220 43//221 42//222
f 50//223 44//224 43//225
f 50//226 45//227 44//228
f 50//229 46//230 45//231
f 50//232 47//233 46//234
f 50//235 48//236 47//237
f 50//238 25//239 48//240
